<!-- Chela, application icon. GENERATED by desktop/scripts/artwork.mjs: edit that, then run npm run icons. -->
<svg viewBox="0 0 120 120" fill="none" xmlns="http://www.w3.org/2000/svg"><defs><linearGradient id="tile" x1="0" y1="0" x2="0" y2="1"><stop offset="0" stop-color="#2d0406"/><stop offset="1" stop-color="#0f0202"/></linearGradient><linearGradient id="sunset" gradientUnits="userSpaceOnUse" x1="0" y1="30" x2="0" y2="112"><stop offset="0" stop-color="#feaba7"/><stop offset="0.5" stop-color="#ff5e62"/><stop offset="1" stop-color="#0178d8"/></linearGradient><clipPath id="window"><rect x="10" y="10" width="100" height="100" rx="23"/></clipPath><clipPath id="claw"><path d="M81 41.73 L80 41.91 L78.75 42.2 L77.66 42.5 L76.5 42.88 L75.25 43.36 L74.25 43.8 L73.25 44.28 L72.25 44.81 L71.25 45.39 L70.25 46.03 L69.25 46.71 L68.2 47.5 L67.25 48.27 L66.25 49.14 L65.25 50.08 L64.35 51 L63.01 52.5 L61.81 54 L60.73 55.5 L59.61 57.25 L58.75 58.76 L57.87 60.5 L57.1 62.25 L56.35 64.25 L56.25 64.42 L56.16 64.5 L54.75 65.27 L53.5 66.06 L52.25 66.96 L50.98 68 L49.75 69.15 L48.71 70.25 L47.67 71.5 L46.76 72.75 L46 73.93 L45.39 75 L44.88 76 L44.31 77.25 L43.83 78.5 L43.42 79.75 L43.08 81 L42.81 82.25 L42.64 83.25 L42.51 84.25 L42.38 86.25 L42.37 87.5 L42.41 88.5 L42.49 89.5 L42.61 90.5 L42.78 91.5 L42.98 92.5 L43.23 93.5 L43.52 94.5 L43.85 95.5 L44.24 96.5 L45.03 98.25 L45.26 98.5 L67 112.09 L67.25 112.17 L68.75 112.14 L70.25 112.03 L71.75 111.82 L73 111.58 L74.5 111.2 L75.75 110.8 L77 110.34 L78.25 109.79 L79.5 109.16 L80.75 108.44 L81.82 107.75 L83 106.89 L84.08 106 L85.17 105 L86.14 104 L87.01 103 L87.75 102.06 L88.33 101.25 L88.82 100.5 L89.43 99.5 L89.97 98.5 L90.46 97.5 L90.89 96.5 L91.25 95.57 L91.61 94.5 L91.9 93.5 L92.15 92.5 L92.35 91.5 L92.52 90.5 L92.64 89.5 L92.72 88.5 L92.77 87.25 L93.95 86 L94.75 85.11 L95.67 84 L96.44 83 L97.25 81.86 L97.98 80.75 L98.59 79.75 L99.3 78.5 L99.94 77.25 L100.52 76 L101.05 74.75 L101.52 73.5 L101.94 72.25 L102.3 71 L102.62 69.75 L102.88 68.5 L103.1 67.25 L103.23 66.25 L103.36 65 L103.42 64 L103.44 62.75 L103.42 61.5 L103.34 60.25 L103.25 60.03 L103.09 60.25 L103 60.32 L101.14 62.5 L99.34 64.5 L96.95 67 L95 68.91 L93.25 70.54 L91.25 72.29 L88.75 74.33 L86.75 75.84 L84.75 77.24 L82.75 78.54 L80.75 79.74 L78.25 81.09 L76.25 82.06 L74.1 83 L72.25 83.71 L71.25 84.06 L70.5 84.31 L70.25 84.32 L70.21 84.25 L69.93 82.5 L69.68 80.25 L69.58 78.5 L69.56 77.5 L69.6 75.5 L69.74 73.5 L69.98 71.5 L70.36 69.25 L70.74 67.5 L70.99 66.5 L71.33 65.25 L71.87 63.5 L72.74 61 L74 57.9 L75.5 54.67 L76.75 52.22 L78.69 48.75 L80.81 45.25 L83.1 41.75 L83 41.54 L82.75 41.53Z M46.25 102.4 L34.16 121.75 L35 121.86 L36.25 121.92 L41.75 121.97 L53.25 121.95 L55.75 121.91 L57 121.83 L57.51 121.75 L59.22 119 L62.97 113 L62.97 112.75 L46.5 102.46Z"/></clipPath><filter id="glow" filterUnits="userSpaceOnUse" x="0" y="0" width="120" height="120"><feGaussianBlur stdDeviation="3"/></filter></defs><rect x="10" y="10" width="100" height="100" rx="23" fill="url(#tile)"/><g clip-path="url(#window)"><circle cx="24" cy="24" r="3" fill="#ff545b"/><circle cx="33" cy="24" r="3" fill="#582021"/><circle cx="42" cy="24" r="3" fill="#582021"/><path d="M10 38 H110" stroke="#421113" stroke-width="2"/><g stroke="#ff545b" stroke-width="0.8" opacity="0.45"><path d="M10 78 H110"/><path d="M10 82 H110"/><path d="M10 88 H110"/><path d="M10 97 H110"/><path d="M10 110 H110"/><path d="M60 78 L-100 112"/><path d="M60 78 L-40 112"/><path d="M60 78 L10 112"/><path d="M60 78 L60 112"/><path d="M60 78 L110 112"/><path d="M60 78 L160 112"/><path d="M60 78 L220 112"/></g><g filter="url(#glow)" opacity="0.8"><path d="M81 41.73 L80 41.91 L78.75 42.2 L77.66 42.5 L76.5 42.88 L75.25 43.36 L74.25 43.8 L73.25 44.28 L72.25 44.81 L71.25 45.39 L70.25 46.03 L69.25 46.71 L68.2 47.5 L67.25 48.27 L66.25 49.14 L65.25 50.08 L64.35 51 L63.01 52.5 L61.81 54 L60.73 55.5 L59.61 57.25 L58.75 58.76 L57.87 60.5 L57.1 62.25 L56.35 64.25 L56.25 64.42 L56.16 64.5 L54.75 65.27 L53.5 66.06 L52.25 66.96 L50.98 68 L49.75 69.15 L48.71 70.25 L47.67 71.5 L46.76 72.75 L46 73.93 L45.39 75 L44.88 76 L44.31 77.25 L43.83 78.5 L43.42 79.75 L43.08 81 L42.81 82.25 L42.64 83.25 L42.51 84.25 L42.38 86.25 L42.37 87.5 L42.41 88.5 L42.49 89.5 L42.61 90.5 L42.78 91.5 L42.98 92.5 L43.23 93.5 L43.52 94.5 L43.85 95.5 L44.24 96.5 L45.03 98.25 L45.26 98.5 L67 112.09 L67.25 112.17 L68.75 112.14 L70.25 112.03 L71.75 111.82 L73 111.58 L74.5 111.2 L75.75 110.8 L77 110.34 L78.25 109.79 L79.5 109.16 L80.75 108.44 L81.82 107.75 L83 106.89 L84.08 106 L85.17 105 L86.14 104 L87.01 103 L87.75 102.06 L88.33 101.25 L88.82 100.5 L89.43 99.5 L89.97 98.5 L90.46 97.5 L90.89 96.5 L91.25 95.57 L91.61 94.5 L91.9 93.5 L92.15 92.5 L92.35 91.5 L92.52 90.5 L92.64 89.5 L92.72 88.5 L92.77 87.25 L93.95 86 L94.75 85.11 L95.67 84 L96.44 83 L97.25 81.86 L97.98 80.75 L98.59 79.75 L99.3 78.5 L99.94 77.25 L100.52 76 L101.05 74.75 L101.52 73.5 L101.94 72.25 L102.3 71 L102.62 69.75 L102.88 68.5 L103.1 67.25 L103.23 66.25 L103.36 65 L103.42 64 L103.44 62.75 L103.42 61.5 L103.34 60.25 L103.25 60.03 L103.09 60.25 L103 60.32 L101.14 62.5 L99.34 64.5 L96.95 67 L95 68.91 L93.25 70.54 L91.25 72.29 L88.75 74.33 L86.75 75.84 L84.75 77.24 L82.75 78.54 L80.75 79.74 L78.25 81.09 L76.25 82.06 L74.1 83 L72.25 83.71 L71.25 84.06 L70.5 84.31 L70.25 84.32 L70.21 84.25 L69.93 82.5 L69.68 80.25 L69.58 78.5 L69.56 77.5 L69.6 75.5 L69.74 73.5 L69.98 71.5 L70.36 69.25 L70.74 67.5 L70.99 66.5 L71.33 65.25 L71.87 63.5 L72.74 61 L74 57.9 L75.5 54.67 L76.75 52.22 L78.69 48.75 L80.81 45.25 L83.1 41.75 L83 41.54 L82.75 41.53Z M46.25 102.4 L34.16 121.75 L35 121.86 L36.25 121.92 L41.75 121.97 L53.25 121.95 L55.75 121.91 L57 121.83 L57.51 121.75 L59.22 119 L62.97 113 L62.97 112.75 L46.5 102.46Z" fill="none" stroke="url(#sunset)" stroke-width="4.4" stroke-linejoin="round" clip-path="url(#claw)"/><path d="M81 41.73 L80 41.91 L78.75 42.2 L77.66 42.5 L76.5 42.88 L75.25 43.36 L74.25 43.8 L73.25 44.28 L72.25 44.81 L71.25 45.39 L70.25 46.03 L69.25 46.71 L68.2 47.5 L67.25 48.27 L66.25 49.14 L65.25 50.08 L64.35 51 L63.01 52.5 L61.81 54 L60.73 55.5 L59.61 57.25 L58.75 58.76 L57.87 60.5 L57.1 62.25 L56.35 64.25 L56.25 64.42 L56.16 64.5 L54.75 65.27 L53.5 66.06 L52.25 66.96 L50.98 68 L49.75 69.15 L48.71 70.25 L47.67 71.5 L46.76 72.75 L46 73.93 L45.39 75 L44.88 76 L44.31 77.25 L43.83 78.5 L43.42 79.75 L43.08 81 L42.81 82.25 L42.64 83.25 L42.51 84.25 L42.38 86.25 L42.37 87.5 L42.41 88.5 L42.49 89.5 L42.61 90.5 L42.78 91.5 L42.98 92.5 L43.23 93.5 L43.52 94.5 L43.85 95.5 L44.24 96.5 L45.03 98.25 L45.26 98.5 L67 112.09 L67.25 112.17 L68.75 112.14 L70.25 112.03 L71.75 111.82 L73 111.58 L74.5 111.2 L75.75 110.8 L77 110.34 L78.25 109.79 L79.5 109.16 L80.75 108.44 L81.82 107.75 L83 106.89 L84.08 106 L85.17 105 L86.14 104 L87.01 103 L87.75 102.06 L88.33 101.25 L88.82 100.5 L89.43 99.5 L89.97 98.5 L90.46 97.5 L90.89 96.5 L91.25 95.57 L91.61 94.5 L91.9 93.5 L92.15 92.5 L92.35 91.5 L92.52 90.5 L92.64 89.5 L92.72 88.5 L92.77 87.25 L93.95 86 L94.75 85.11 L95.67 84 L96.44 83 L97.25 81.86 L97.98 80.75 L98.59 79.75 L99.3 78.5 L99.94 77.25 L100.52 76 L101.05 74.75 L101.52 73.5 L101.94 72.25 L102.3 71 L102.62 69.75 L102.88 68.5 L103.1 67.25 L103.23 66.25 L103.36 65 L103.42 64 L103.44 62.75 L103.42 61.5 L103.34 60.25 L103.25 60.03 L103.09 60.25 L103 60.32 L101.14 62.5 L99.34 64.5 L96.95 67 L95 68.91 L93.25 70.54 L91.25 72.29 L88.75 74.33 L86.75 75.84 L84.75 77.24 L82.75 78.54 L80.75 79.74 L78.25 81.09 L76.25 82.06 L74.1 83 L72.25 83.71 L71.25 84.06 L70.5 84.31 L70.25 84.32 L70.21 84.25 L69.93 82.5 L69.68 80.25 L69.58 78.5 L69.56 77.5 L69.6 75.5 L69.74 73.5 L69.98 71.5 L70.36 69.25 L70.74 67.5 L70.99 66.5 L71.33 65.25 L71.87 63.5 L72.74 61 L74 57.9 L75.5 54.67 L76.75 52.22 L78.69 48.75 L80.81 45.25 L83.1 41.75 L83 41.54 L82.75 41.53Z M46.25 102.4 L34.16 121.75 L35 121.86 L36.25 121.92 L41.75 121.97 L53.25 121.95 L55.75 121.91 L57 121.83 L57.51 121.75 L59.22 119 L62.97 113 L62.97 112.75 L46.5 102.46Z" fill="none" stroke="url(#sunset)" stroke-width="4.4" stroke-linejoin="round" clip-path="url(#claw)"/></g><path d="M81 41.73 L80 41.91 L78.75 42.2 L77.66 42.5 L76.5 42.88 L75.25 43.36 L74.25 43.8 L73.25 44.28 L72.25 44.81 L71.25 45.39 L70.25 46.03 L69.25 46.71 L68.2 47.5 L67.25 48.27 L66.25 49.14 L65.25 50.08 L64.35 51 L63.01 52.5 L61.81 54 L60.73 55.5 L59.61 57.25 L58.75 58.76 L57.87 60.5 L57.1 62.25 L56.35 64.25 L56.25 64.42 L56.16 64.5 L54.75 65.27 L53.5 66.06 L52.25 66.96 L50.98 68 L49.75 69.15 L48.71 70.25 L47.67 71.5 L46.76 72.75 L46 73.93 L45.39 75 L44.88 76 L44.31 77.25 L43.83 78.5 L43.42 79.75 L43.08 81 L42.81 82.25 L42.64 83.25 L42.51 84.25 L42.38 86.25 L42.37 87.5 L42.41 88.5 L42.49 89.5 L42.61 90.5 L42.78 91.5 L42.98 92.5 L43.23 93.5 L43.52 94.5 L43.85 95.5 L44.24 96.5 L45.03 98.25 L45.26 98.5 L67 112.09 L67.25 112.17 L68.75 112.14 L70.25 112.03 L71.75 111.82 L73 111.58 L74.5 111.2 L75.75 110.8 L77 110.34 L78.25 109.79 L79.5 109.16 L80.75 108.44 L81.82 107.75 L83 106.89 L84.08 106 L85.17 105 L86.14 104 L87.01 103 L87.75 102.06 L88.33 101.25 L88.82 100.5 L89.43 99.5 L89.97 98.5 L90.46 97.5 L90.89 96.5 L91.25 95.57 L91.61 94.5 L91.9 93.5 L92.15 92.5 L92.35 91.5 L92.52 90.5 L92.64 89.5 L92.72 88.5 L92.77 87.25 L93.95 86 L94.75 85.11 L95.67 84 L96.44 83 L97.25 81.86 L97.98 80.75 L98.59 79.75 L99.3 78.5 L99.94 77.25 L100.52 76 L101.05 74.75 L101.52 73.5 L101.94 72.25 L102.3 71 L102.62 69.75 L102.88 68.5 L103.1 67.25 L103.23 66.25 L103.36 65 L103.42 64 L103.44 62.75 L103.42 61.5 L103.34 60.25 L103.25 60.03 L103.09 60.25 L103 60.32 L101.14 62.5 L99.34 64.5 L96.95 67 L95 68.91 L93.25 70.54 L91.25 72.29 L88.75 74.33 L86.75 75.84 L84.75 77.24 L82.75 78.54 L80.75 79.74 L78.25 81.09 L76.25 82.06 L74.1 83 L72.25 83.71 L71.25 84.06 L70.5 84.31 L70.25 84.32 L70.21 84.25 L69.93 82.5 L69.68 80.25 L69.58 78.5 L69.56 77.5 L69.6 75.5 L69.74 73.5 L69.98 71.5 L70.36 69.25 L70.74 67.5 L70.99 66.5 L71.33 65.25 L71.87 63.5 L72.74 61 L74 57.9 L75.5 54.67 L76.75 52.22 L78.69 48.75 L80.81 45.25 L83.1 41.75 L83 41.54 L82.75 41.53Z M46.25 102.4 L34.16 121.75 L35 121.86 L36.25 121.92 L41.75 121.97 L53.25 121.95 L55.75 121.91 L57 121.83 L57.51 121.75 L59.22 119 L62.97 113 L62.97 112.75 L46.5 102.46Z" fill="none" stroke="url(#sunset)" stroke-width="4.4" stroke-linejoin="round" clip-path="url(#claw)"/></g><rect x="10.5" y="10.5" width="99" height="99" rx="22.5" stroke="#ffffff" stroke-opacity="0.07"/></svg>
